<svg xmlns="http://www.w3.org/2000/svg" xmlns:xlink="http://www.w3.org/1999/xlink"
  width="45" height="45" viewBox="0 0 45 45">
<defs>
    <style>
      .cls-1 {
        fill: #338244;
      }
    </style>
  </defs>
  <path id="fa-pencil" class="cls-1" d="M547.6,1896.19v-3.8h-3.8v-3.18l2.7-2.7,6.978,6.98-2.7,2.7H547.6Zm18.5-27.05-16.094,16.09a0.685,0.685,0,0,1-.5.21,0.577,0.577,0,0,1-.653-0.65,0.7,0.7,0,0,1,.208-0.51l16.093-16.09a0.685,0.685,0,0,1,.5-0.21,0.577,0.577,0,0,1,.653.65,0.7,0.7,0,0,1-.207.51h0Zm-26.1,18.5v12.35h12.352l24.706-24.7-12.353-12.36Zm43.887-24.56-6.978-6.95a3.688,3.688,0,0,0-2.7-1.12,3.531,3.531,0,0,0-2.673,1.12l-4.929,4.9,12.353,12.35,4.929-4.92a3.667,3.667,0,0,0,1.1-2.68,3.8,3.8,0,0,0-1.1-2.7h0Z" transform="translate(-540 -1855)"/>
</svg>
