<svg xmlns="http://www.w3.org/2000/svg" xmlns:xlink="http://www.w3.org/1999/xlink" width="47" height="47" viewBox="0 0 47 47">
<defs>
 <style>
  .cls-1 {
    fill: #338244;
  }
</style>
  </defs>
  <path id="fa-send-o" class="cls-1" d="M576.487,2030.28l-43.648,25.16a1.66,1.66,0,0,0,.21,2.99l12.381,5.06v11.85a1.694,1.694,0,0,0,.288.95,1.565,1.565,0,0,0,.787.62,1.5,1.5,0,0,0,.6.1,1.538,1.538,0,0,0,1.233-.55l7.816-8.57,13.824,5.64a1.936,1.936,0,0,0,.629.13,1.61,1.61,0,0,0,.813-0.21,1.65,1.65,0,0,0,.84-1.18l6.715-40.26a1.618,1.618,0,0,0-.709-1.67,1.521,1.521,0,0,0-1.783-.06h0Zm-20.093,34.07,12.538-20.88L546.3,2060.21l-8.814-3.59,37.615-21.67-5.8,34.67Z" transform="translate(-532 -2030)"/>
</svg>
