<svg id="Layer_1" data-name="Layer 1" xmlns="http://www.w3.org/2000/svg" viewBox="0 0 345.68 329.95"><defs><style>.cls-1{fill:#338244;}</style></defs><title>green-star</title><path class="cls-1" d="M166.43,24.45l44.48,90.12c1.87,3.79,3.51,7.9,5.69,11.53,3.29,5.45,8.89,5.3,14.37,6.09l57.41,8.34,46.83,6.81-4.63-17.55-72,70.15c-3.06,3-6.38,5.84-9.25,9-4.63,5.11-2.45,11.92-1.41,18l9.86,57.45,8,46.64,15.42-11.86-89-46.77c-3.8-2-7.56-4.15-11.44-6-6.64-3.18-11.93.65-17.6,3.64l-51.59,27.12-41.88,22L85.19,331l17-99.05c.73-4.25,1.53-8.49,2.19-12.74,1.19-7.68-3.57-11.11-8.32-15.75L54.31,162.82l-33.89-33-4.63,17.55,99.45-14.45c4.16-.61,8.66-.81,12.73-1.85,5.8-1.49,7.64-7.39,10-12.13l25.68-52,20.94-42.43c2.5-5.08,1.36-11.36-3.77-14.37-4.63-2.71-11.85-1.33-14.37,3.77l-43.87,88.91-6.34,12.84,6.27-4.83L24.38,125l-14.17,2.06c-8,1.17-9.78,12.53-4.63,17.55l71,69.2,10.26,10-2.7-10.22L67.37,311.34l-2.43,14.11c-1.54,9,6.87,16.36,15.43,11.86l87.76-46.14,12.67-6.66H170.2L258,330.65l12.67,6.66c8.59,4.52,17-2.89,15.43-11.86L269.3,227.73l-2.43-14.11-2.7,10.22,71-69.21,10.25-10c5.15-5,3.4-16.38-4.63-17.55l-98.11-14.26-14.17-2.06,6.27,4.83L190.9,26.69l-6.33-12.84c-2.51-5.08-9.72-6.48-14.37-3.77C165,13.12,163.91,19.35,166.43,24.45Z" transform="translate(-2.66 -8.72)"/></svg>